<svg width="47" height="47" viewBox="0 0 47 47" fill="none" xmlns="http://www.w3.org/2000/svg">
<g clip-path="url(#clip0_1_1342)">
<path fill-rule="evenodd" clip-rule="evenodd" d="M23.5902 46.028C36.0225 46.028 46.1008 35.9496 46.1008 23.5174C46.1008 11.0851 36.0225 1.00671 23.5902 1.00671C11.1579 1.00671 1.07956 11.0851 1.07956 23.5174C1.07956 35.9496 11.1579 46.028 23.5902 46.028ZM15.3956 16.3736C14.8359 16.3736 14.3822 16.8273 14.3822 17.3869C14.3822 17.9467 14.8359 18.4004 15.3956 18.4004H31.3757C31.9355 18.4004 32.3892 17.9467 32.3892 17.3869C32.3892 16.8273 31.9355 16.3736 31.3757 16.3736H15.3956ZM14.3822 23.3873C14.3822 22.8275 14.8359 22.3738 15.3956 22.3738H31.3757C31.9355 22.3738 32.3892 22.8275 32.3892 23.3873C32.3892 23.9469 31.9355 24.4007 31.3757 24.4007H15.3956C14.8359 24.4007 14.3822 23.9469 14.3822 23.3873ZM15.3956 28.378C14.8359 28.378 14.3822 28.8317 14.3822 29.3915C14.3822 29.9512 14.8359 30.4049 15.3956 30.4049H31.3757C31.9355 30.4049 32.3892 29.9512 32.3892 29.3915C32.3892 28.8317 31.9355 28.378 31.3757 28.378H15.3956Z" fill="white"/>
</g>
<defs>
<clipPath id="clip0_1_1342">
<rect width="46" height="46" fill="white" transform="translate(0.94574 0.517334)"/>
</clipPath>
</defs>
</svg>
