<svg width="261" height="70" viewBox="0 0 261 70" fill="none" xmlns="http://www.w3.org/2000/svg">
<g clip-path="url(#clip0_1_1242)">
<path d="M7.85168 17.451C15.7193 17.451 20.0215 10.9331 20.0215 5.28116C20.0215 5.09603 20.0177 4.91173 20.0094 4.72827C20.8446 4.12451 21.5705 3.37107 22.143 2.51338C21.3766 2.85404 20.5519 3.08337 19.6867 3.18677C20.5698 2.65723 21.2478 1.81956 21.5676 0.820949C20.7412 1.31087 19.826 1.66696 18.8515 1.85917C18.071 1.02776 16.9598 0.507812 15.7294 0.507812C13.3673 0.507812 11.4518 2.42332 11.4518 4.78456C11.4518 5.12021 11.4893 5.44669 11.5627 5.75982C8.00764 5.58095 4.85543 3.87892 2.74604 1.29086C2.3787 1.92297 2.16688 2.65723 2.16688 3.4407C2.16688 4.92466 2.92199 6.23474 4.0703 7.00111C3.36856 6.97943 2.70935 6.78679 2.13311 6.46615C2.13248 6.4841 2.13248 6.5016 2.13248 6.52078C2.13248 8.59223 3.60684 10.3218 5.56405 10.7138C5.20463 10.8117 4.82645 10.8643 4.43618 10.8643C4.16098 10.8643 3.89288 10.8372 3.63228 10.7871C4.17683 12.4867 5.75585 13.7234 7.628 13.758C6.16405 14.9054 4.31984 15.5888 2.31552 15.5888C1.9707 15.5888 1.63005 15.5692 1.29523 15.5296C3.18822 16.743 5.43582 17.451 7.85168 17.451Z" fill="#005620"/>
</g>
<g clip-path="url(#clip1_1_1242)">
<path fill-rule="evenodd" clip-rule="evenodd" d="M49.723 1.07015C50.7884 1.02262 51.129 1.01074 53.8379 1.01074C56.5468 1.01074 56.8874 1.02262 57.9567 1.06619C59.0221 1.11371 59.7468 1.28401 60.3805 1.52956C61.034 1.78698 61.5924 2.12758 62.1468 2.68203C62.7013 3.23649 63.0458 3.79095 63.2993 4.44837C63.5448 5.08599 63.7151 5.81075 63.7627 6.87213C63.8102 7.93748 63.8221 8.27411 63.8221 10.987C63.8221 13.6999 63.8102 14.0365 63.7627 15.1018C63.7151 16.1672 63.5448 16.8919 63.2993 17.5256C63.0419 18.1791 62.7013 18.7375 62.1468 19.2919C61.5924 19.8464 61.0379 20.191 60.3805 20.4444C59.7429 20.69 59.0181 20.8603 57.9567 20.9078C56.8914 20.9553 56.5548 20.9672 53.8419 20.9672C51.129 20.9672 50.7923 20.9553 49.727 20.9078C48.6616 20.8603 47.9369 20.69 47.3032 20.4444C46.6498 20.187 46.0913 19.8464 45.5369 19.2919C44.9824 18.7375 44.6379 18.183 44.3844 17.5256C44.1389 16.888 43.9686 16.1632 43.921 15.1018C43.8735 14.0365 43.8616 13.6959 43.8616 10.987C43.8616 8.27807 43.8735 7.93748 43.921 6.87609C43.9686 5.81075 44.1389 5.08599 44.3844 4.45233C44.6418 3.79887 44.9824 3.24045 45.5369 2.68599C46.0913 2.13154 46.6458 1.78698 47.3032 1.53352C47.9369 1.28797 48.6616 1.11767 49.723 1.07015ZM57.8685 2.868C56.815 2.82048 56.5022 2.8086 53.8368 2.8086C51.1714 2.8086 50.8586 2.81652 49.8051 2.868C48.8308 2.91157 48.3041 3.07791 47.9516 3.21256C47.4843 3.39078 47.1516 3.6086 46.8031 3.95711C46.4546 4.30563 46.2407 4.6383 46.0586 5.10563C45.92 5.4581 45.7576 5.98483 45.714 6.95908C45.6665 8.01256 45.6546 8.32543 45.6546 10.9908C45.6546 13.6561 45.6665 13.969 45.714 15.0225C45.7576 15.9967 45.9239 16.5235 46.0586 16.8759C46.2368 17.3433 46.4546 17.6759 46.8031 18.0244C47.1516 18.373 47.4843 18.5868 47.9516 18.769C48.3041 18.9076 48.8308 19.07 49.8051 19.1136C50.8586 19.1611 51.1714 19.173 53.8368 19.173C56.5022 19.173 56.815 19.1611 57.8685 19.1136C58.8428 19.07 59.3695 18.9037 59.722 18.769C60.1893 18.5908 60.522 18.373 60.8705 18.0244C61.219 17.6759 61.4329 17.3433 61.615 16.8759C61.7537 16.5235 61.916 15.9967 61.9596 15.0225C62.0071 13.969 62.019 13.6561 62.019 10.9908C62.019 8.32543 62.0071 8.01256 61.9596 6.95908C61.916 5.98483 61.7497 5.4581 61.615 5.10563C61.4368 4.6383 61.219 4.30563 60.8705 3.95711C60.522 3.6086 60.1893 3.39474 59.722 3.21256C59.3695 3.07395 58.8428 2.91157 57.8685 2.868Z" fill="#005620"/>
<path fill-rule="evenodd" clip-rule="evenodd" d="M48.7132 10.9881C48.7132 8.15635 51.0102 5.86328 53.838 5.86328C56.6657 5.86328 58.9627 8.16031 58.9627 10.9881C58.9627 13.8158 56.6657 16.1128 53.838 16.1128C51.0102 16.1128 48.7132 13.8198 48.7132 10.9881ZM50.5101 10.9879C50.5101 12.8255 51.9992 14.3146 53.8369 14.3146C55.6745 14.3146 57.1636 12.8255 57.1636 10.9879C57.1636 9.15024 55.6745 7.66113 53.8369 7.66113C51.9992 7.66113 50.5101 9.15024 50.5101 10.9879Z" fill="#005620"/>
<path d="M59.1632 6.85692C59.8237 6.85692 60.3592 6.32143 60.3592 5.66088C60.3592 5.00033 59.8237 4.46484 59.1632 4.46484C58.5026 4.46484 57.9671 5.00033 57.9671 5.66088C57.9671 6.32143 58.5026 6.85692 59.1632 6.85692Z" fill="#005620"/>
</g>
<g clip-path="url(#clip2_1_1242)">
<path d="M88.2849 1.03223L84.1898 5.12736V19.8699H89.1039V23.965L93.1991 19.8699H96.4752L103.846 12.4987V1.03223H88.2849ZM102.208 11.6796L98.9323 14.9557H95.6562L92.7896 17.8223V14.9557H89.1039V2.67028H102.208V11.6796Z" fill="#005620"/>
<path d="M99.7496 5.53711H98.1116V10.4513H99.7496V5.53711Z" fill="#005620"/>
<path d="M95.2497 5.53711H93.6116V10.4513H95.2497V5.53711Z" fill="#005620"/>
</g>
<g clip-path="url(#clip3_1_1242)">
<path fill-rule="evenodd" clip-rule="evenodd" d="M14.1536 47.0312C14.4829 49.8632 16.0635 51.5516 18.8117 51.7313V54.9165C17.2191 55.0722 15.824 54.5513 14.2015 53.5694V59.5267C14.2015 67.0946 5.95098 69.4596 2.63403 64.0351C0.502562 60.5445 1.80779 54.4195 8.64525 54.1741V57.533C8.12436 57.6168 7.56754 57.7485 7.05862 57.9221C5.53786 58.437 4.67569 59.401 4.91518 61.1014C5.3762 64.3584 11.3515 65.3224 10.8546 58.9579V47.0372H14.1536V47.0312Z" fill="#005620"/>
</g>
<g clip-path="url(#clip4_1_1242)">
<path fill-rule="evenodd" clip-rule="evenodd" d="M45.2421 47.0107C44.3028 47.0107 43.5413 47.7722 43.5413 48.7115V65.2664C43.5413 66.2057 44.3028 66.9672 45.2421 66.9672H61.797C62.7363 66.9672 63.4978 66.2057 63.4978 65.2664V48.7115C63.4978 47.7722 62.7363 47.0107 61.797 47.0107H45.2421ZM50.5156 52.3901C50.5156 53.1866 49.8699 53.8323 49.0734 53.8323C48.2769 53.8323 47.6312 53.1866 47.6312 52.3901C47.6312 51.5937 48.2769 50.948 49.0734 50.948C49.8699 50.948 50.5156 51.5937 50.5156 52.3901ZM47.7874 54.5729V62.2904H50.3599V54.5729H47.7874ZM54.3356 62.2904V57.6424C54.4661 56.9997 54.9453 56.4434 55.7026 56.4434C56.6381 56.4434 56.9889 57.145 56.9889 58.1974V62.29H59.5614V57.8855C59.5614 55.5079 58.3141 54.4165 56.5991 54.4165C55.323 54.4165 54.6613 55.1032 54.3356 55.6065V54.5729H51.7631V62.2904H54.3356Z" fill="#005620"/>
</g>
<defs>
<clipPath id="clip0_1_1242">
<rect width="22" height="17" fill="white" transform="translate(0.935852 0.467773)"/>
</clipPath>
<clipPath id="clip1_1_1242">
<rect width="21" height="21" fill="white" transform="translate(42.9359 0.467773)"/>
</clipPath>
<clipPath id="clip2_1_1242">
<rect width="20" height="24" fill="white" transform="translate(83.9359 0.467773)"/>
</clipPath>
<clipPath id="clip3_1_1242">
<rect width="18" height="21" fill="white" transform="translate(0.935852 46.4678)"/>
</clipPath>
<clipPath id="clip4_1_1242">
<rect width="21" height="21" fill="white" transform="translate(42.9359 46.4678)"/>
</clipPath>
</defs>
</svg>
