<svg width="149" height="33" viewBox="0 0 149 33" fill="none" xmlns="http://www.w3.org/2000/svg">
<g clip-path="url(#clip0_1_1330)">
<path d="M59.6954 12.8851C59.5646 12.9629 59.409 12.9899 59.259 12.9609C59.1089 12.9319 58.9754 12.8489 58.8846 12.7283C58.4379 12.0993 57.8387 11.5894 57.1409 11.2445C56.4431 10.8996 55.6687 10.7306 54.8877 10.7529C51.8424 10.7529 49.9734 13.1166 49.9734 16.4923C49.9734 19.8681 51.8767 22.2766 54.9219 22.2766C55.7134 22.2952 56.4966 22.1152 57.1973 21.7539C57.8981 21.3925 58.4932 20.8617 58.9264 20.2116C59.013 20.0894 59.1432 20.0035 59.2913 19.971C59.4393 19.9385 59.5944 19.9617 59.7258 20.0361L61.1723 20.8576C61.2513 20.8969 61.3207 20.9525 61.3759 21.0204C61.431 21.0884 61.4706 21.1672 61.4919 21.2516C61.5132 21.3359 61.5158 21.4237 61.4994 21.5091C61.483 21.5945 61.448 21.6754 61.3969 21.7464C60.6897 22.7862 59.725 23.6328 58.5932 24.2069C57.4613 24.781 56.1994 25.0638 54.9257 25.0287C50.0571 25.0287 46.7568 21.5634 46.7568 16.511C46.7568 11.4586 50.0571 8.03805 54.8534 8.03805C56.1059 8.00394 57.3477 8.27132 58.4705 8.81682C59.5933 9.36233 60.5627 10.1694 61.2941 11.1673C61.3444 11.2346 61.38 11.3112 61.3989 11.3925C61.4177 11.4738 61.4193 11.558 61.4036 11.6399C61.3879 11.7218 61.3552 11.7997 61.3076 11.8687C61.2599 11.9378 61.1984 11.9964 61.1266 12.0412L59.6954 12.8851Z" fill="white"/>
<path d="M70.3255 24.1167V23.4297C69.5642 24.3931 68.5021 24.9906 66.793 24.9906C64.2654 24.9906 62.5106 23.6349 62.5106 21.2562C62.5106 18.295 65.2019 17.7873 66.8615 17.5595C68.643 17.3056 70.1618 17.1861 70.1618 16.0434C70.1618 15.0314 68.9704 14.7587 67.9616 14.7587C66.8037 14.7776 65.6661 15.0602 64.6385 15.5841C64.5672 15.6225 64.4886 15.6464 64.4077 15.6542C64.3267 15.662 64.2449 15.6535 64.1673 15.6294C64.0898 15.6053 64.018 15.5661 63.9563 15.514C63.8947 15.4619 63.8444 15.3981 63.8086 15.3264L63.2871 14.2584C63.2174 14.1201 63.2046 13.9607 63.2514 13.8133C63.2982 13.666 63.4009 13.5419 63.5384 13.4668C64.9776 12.7152 66.5824 12.3203 68.2128 12.3167C71.1135 12.3167 73.1614 13.4855 73.1614 16.3123V24.1167C73.1614 24.2751 73.0972 24.4271 72.983 24.5391C72.8688 24.6512 72.7139 24.7142 72.5523 24.7142H70.9612C70.879 24.7178 70.7969 24.7048 70.7199 24.6764C70.6429 24.6479 70.5726 24.6045 70.5132 24.5486C70.4538 24.4928 70.4065 24.4258 70.3743 24.3516C70.342 24.2774 70.3254 24.1974 70.3255 24.1167ZM70.1618 18.7207C69.6022 19.1352 68.5707 19.2735 67.4706 19.4677C66.3705 19.6618 65.4569 19.9493 65.4569 21.1219C65.4569 22.2011 66.2525 22.7051 67.402 22.7051C68.8295 22.7051 70.1618 21.9248 70.1618 20.1099V18.7207Z" fill="white"/>
<path d="M75.7868 21.622C75.8895 21.5047 76.0345 21.431 76.1914 21.4164C76.3482 21.4017 76.5048 21.4473 76.6281 21.5436C77.6458 22.2975 78.8932 22.6923 80.1682 22.6638C81.4815 22.6638 82.4522 22.2493 82.4522 21.2411C82.4522 20.3225 81.5614 20.1395 79.4069 19.7698C77.123 19.3964 74.938 18.6496 74.938 16.0954C74.938 13.4329 77.279 12.3089 79.9474 12.3089C81.6208 12.2846 83.2543 12.8104 84.5876 13.8026C84.6527 13.8526 84.7067 13.915 84.7463 13.9861C84.786 14.0572 84.8105 14.1355 84.8183 14.2162C84.8262 14.2969 84.8172 14.3783 84.7919 14.4555C84.7666 14.5327 84.7256 14.604 84.6714 14.6652L83.9101 15.5427C83.8091 15.6604 83.6661 15.7357 83.5103 15.753C83.3545 15.7704 83.1979 15.7285 83.0726 15.6361C82.1345 14.963 80.9992 14.6066 79.837 14.6203C78.7141 14.6203 77.732 14.9415 77.732 15.8116C77.732 16.7787 79.11 16.9617 80.4918 17.1932C83.4419 17.6973 85.3147 18.5226 85.3147 20.9274C85.3147 23.4517 83.2553 25.0126 79.9855 25.0126C78.1984 25.0662 76.4482 24.5062 75.037 23.4293C74.9737 23.3785 74.9213 23.3158 74.883 23.2449C74.8446 23.174 74.821 23.0963 74.8136 23.0163C74.8061 22.9364 74.815 22.8558 74.8396 22.7793C74.8642 22.7027 74.9042 22.6317 74.957 22.5705L75.7868 21.622Z" fill="white"/>
<path d="M87.1286 24.1112V8.91302C87.1286 8.75456 87.1927 8.6026 87.307 8.49055C87.4212 8.3785 87.5761 8.31555 87.7376 8.31555H89.4924C89.654 8.31555 89.8089 8.3785 89.9231 8.49055C90.0373 8.6026 90.1015 8.75456 90.1015 8.91302V14.1035C90.5384 13.5316 91.1084 13.0705 91.764 12.7587C92.4196 12.4469 93.1417 12.2934 93.87 12.3111C96.4661 12.3111 97.9887 14.126 97.9887 16.7175V24.1112C97.9887 24.2697 97.9245 24.4217 97.8103 24.5337C97.6961 24.6458 97.5412 24.7087 97.3796 24.7087H95.6248C95.4633 24.7087 95.3084 24.6458 95.1942 24.5337C95.0799 24.4217 95.0158 24.2697 95.0158 24.1112V17.3897C95.0158 16.1014 94.5932 14.9325 92.9107 14.9325C91.3158 14.9325 90.1015 16.0341 90.1015 17.8714V24.115C90.1015 24.2734 90.0373 24.4254 89.9231 24.5375C89.8089 24.6495 89.654 24.7125 89.4924 24.7125H87.7376C87.6572 24.713 87.5774 24.6977 87.5031 24.6676C87.4287 24.6376 87.3612 24.5932 87.3045 24.5372C87.2478 24.4813 87.203 24.4148 87.1728 24.3416C87.1426 24.2685 87.1276 24.1902 87.1286 24.1112Z" fill="white"/>
<path d="M117.299 24.3076L116.035 20.6481H109.647L108.38 24.3076C108.339 24.4255 108.262 24.5278 108.159 24.6001C108.055 24.6725 107.932 24.7112 107.805 24.7109H105.746C105.648 24.7108 105.551 24.6875 105.464 24.643C105.378 24.5985 105.303 24.5341 105.247 24.4553C105.191 24.3765 105.155 24.2857 105.143 24.1904C105.13 24.0951 105.141 23.9983 105.175 23.9081L110.926 8.70609C110.972 8.59477 111.051 8.49959 111.153 8.43298C111.255 8.36637 111.375 8.33141 111.497 8.33267H114.31C114.435 8.33315 114.557 8.37091 114.66 8.44094C114.763 8.51096 114.841 8.60995 114.885 8.72476L120.614 23.923C120.648 24.0135 120.659 24.1107 120.646 24.2063C120.633 24.3018 120.597 24.3929 120.541 24.4718C120.484 24.5507 120.409 24.615 120.322 24.6592C120.234 24.7034 120.138 24.7263 120.039 24.7259H117.866C117.739 24.723 117.615 24.6812 117.514 24.6061C117.412 24.5311 117.337 24.4267 117.299 24.3076ZM112.875 10.9802L110.416 18.0976H115.239L112.875 10.9802Z" fill="white"/>
<path d="M125.024 13.1939V14.135C125.456 13.5477 126.03 13.0746 126.694 12.7579C127.358 12.4412 128.092 12.2908 128.83 12.3201C132.199 12.3201 134.376 15.0536 134.376 18.6347C134.376 22.2158 132.199 24.9829 128.83 24.9829C128.09 25.0103 127.355 24.8568 126.69 24.536C126.026 24.2153 125.453 23.7375 125.024 23.1456V28.1009C125.024 28.2594 124.96 28.4114 124.845 28.5234C124.731 28.6354 124.576 28.6984 124.415 28.6984H122.66C122.498 28.6984 122.343 28.6354 122.229 28.5234C122.115 28.4114 122.051 28.2594 122.051 28.1009V13.1641C122.051 13.0056 122.115 12.8536 122.229 12.7416C122.343 12.6295 122.498 12.5666 122.66 12.5666H124.415C124.497 12.5665 124.579 12.5829 124.655 12.6148C124.731 12.6466 124.799 12.6933 124.856 12.752C124.913 12.8107 124.958 12.8801 124.986 12.9561C125.015 13.0321 125.028 13.113 125.024 13.1939ZM128.206 22.4473C130.265 22.4473 131.251 20.7221 131.251 18.6347C131.251 16.5473 130.246 14.8669 128.206 14.8669C126.166 14.8669 125.024 16.5435 125.024 18.6347C125.024 20.7259 126.109 22.4473 128.206 22.4473Z" fill="white"/>
<path d="M139.18 13.1939V14.1349C139.613 13.5481 140.187 13.0754 140.851 12.7588C141.515 12.4422 142.249 12.2915 142.987 12.3201C146.359 12.3201 148.537 15.0535 148.537 18.6346C148.537 22.2157 146.359 24.9828 142.987 24.9828C142.247 25.0096 141.512 24.8557 140.847 24.5351C140.183 24.2144 139.61 23.737 139.18 23.1456V28.1009C139.18 28.2593 139.116 28.4113 139.002 28.5233C138.888 28.6354 138.733 28.6983 138.571 28.6983H136.816C136.655 28.6983 136.5 28.6354 136.386 28.5233C136.272 28.4113 136.207 28.2593 136.207 28.1009V13.164C136.207 13.0056 136.272 12.8536 136.386 12.7415C136.5 12.6295 136.655 12.5665 136.816 12.5665H138.571C138.654 12.5659 138.736 12.5819 138.812 12.6136C138.888 12.6453 138.957 12.692 139.014 12.7508C139.071 12.8096 139.116 12.8792 139.144 12.9555C139.173 13.0317 139.185 13.1128 139.18 13.1939ZM142.366 22.4473C144.426 22.4473 145.412 20.7221 145.412 18.6346C145.412 16.5472 144.407 14.8668 142.366 14.8668C140.326 14.8668 139.18 16.5435 139.18 18.6346C139.18 20.7258 140.28 22.4473 142.366 22.4473Z" fill="white"/>
<path fill-rule="evenodd" clip-rule="evenodd" d="M28.327 1.064C26.5977 0.517334 24.9919 0.517334 21.7795 0.517334H12.0928C8.87985 0.517334 7.27363 0.517334 5.54474 1.064C3.65674 1.75111 2.16963 3.23822 1.48252 5.12622C0.935852 6.85511 0.935852 8.46177 0.935852 11.6742V21.3604C0.935852 24.5733 0.935852 26.1791 1.48252 27.9084C2.16963 29.7964 3.65674 31.2835 5.54474 31.9706C7.27363 32.5173 8.87985 32.5173 12.0928 32.5173H21.7795C24.9919 32.5173 26.5977 32.5173 28.327 31.9706C30.215 31.2835 31.7021 29.7964 32.3892 27.9084C32.9359 26.1791 32.9359 24.5733 32.9359 21.3604V11.6742C32.9359 8.46177 32.9359 6.85511 32.3892 5.12622C31.7021 3.23822 30.215 1.75111 28.327 1.064ZM21.5924 12.8144C20.6235 11.9545 19.1406 11.328 17.5935 11.328C16.3827 11.328 15.171 11.7613 15.171 12.8569C15.171 13.8949 16.2772 14.2937 17.627 14.7804C17.7394 14.8209 17.8535 14.8621 17.9688 14.9042C20.5933 15.7983 22.7558 16.8943 22.7558 19.4896C22.7558 22.3105 20.5858 24.2377 17.0402 24.4565L16.7181 25.9899C16.6596 26.2712 16.4102 26.4719 16.1231 26.4697L13.892 26.4529C13.5092 26.4497 13.2261 26.0971 13.3054 25.7232L13.6452 24.1282C12.2496 23.7481 11.0268 23.0694 10.061 22.1319C9.81686 21.8953 9.81465 21.5028 10.057 21.264L11.2958 20.0421C11.5306 19.8104 11.9063 19.8122 12.1411 20.0439C13.3382 21.2241 14.8808 21.7101 16.3535 21.7101C17.9688 21.7101 19.0644 21.0469 19.0644 19.922C19.0644 18.9309 18.1677 18.6 16.4592 17.9695C16.2792 17.9031 16.0902 17.8333 15.8923 17.7591C13.7006 16.9807 11.6241 15.8559 11.6241 13.2313C11.6241 10.1996 14.1339 8.72212 17.0951 8.57414L17.4207 7.04301C17.4801 6.76434 17.7264 6.56497 18.0113 6.56497H20.2389C20.6226 6.56497 20.9083 6.91763 20.8299 7.29288L20.4684 9.01452C21.7466 9.43319 22.785 10.0871 23.5586 10.7521C23.8213 10.9776 23.8302 11.3816 23.5869 11.6284L22.4341 12.7976C22.2042 13.0306 21.8374 13.0319 21.5924 12.8144Z" fill="white"/>
</g>
<defs>
<clipPath id="clip0_1_1330">
<rect width="148" height="32" fill="white" transform="translate(0.935852 0.517334)"/>
</clipPath>
</defs>
</svg>
